<svg width="24" height="24" viewBox="0 0 24 24" fill="none" xmlns="http://www.w3.org/2000/svg">
<g clip-path="url(#clip0_978_13596)">
<path d="M14.7045 14.3749C14.4289 14.1917 14.2464 14.0075 14.0711 13.7308C14.0704 13.7298 14.0697 13.7286 14.0691 13.7276C13.9889 13.6008 13.8005 13.6114 13.7381 13.7479C13.5762 14.1026 13.3962 14.4525 13.2238 14.7873C12.9062 15.4042 12.5224 16.0469 12.5779 16.3601C12.6034 16.5037 12.6891 16.5565 12.8544 16.5715C13.1086 16.5946 13.6516 16.4514 14.734 14.495C14.7497 14.4666 14.7492 14.4321 14.7327 14.4042C14.7258 14.3924 14.716 14.3825 14.7047 14.3749H14.7045Z" fill="white"/>
<path d="M12 0C5.37258 0 0 5.37258 0 12C0 18.6274 5.37258 24 12 24C18.6274 24 24 18.6274 24 12C24 5.37258 18.6274 0 12 0ZM15.9491 13.0674C16.1361 13.2648 16.4033 13.3635 16.7503 13.3635C17.002 13.3635 17.23 13.3058 17.4342 13.1899C17.6383 13.0743 17.8118 12.8907 17.9547 12.6388L19.3733 13.4962C19.108 13.9453 18.7354 14.2958 18.2558 14.5475C17.9162 14.7258 17.5448 14.8406 17.1422 14.8926C16.9217 14.9209 16.7279 15.0525 16.6172 15.2451L16.4269 15.5761C15.3821 17.2815 13.7251 19.2062 11.9319 19.2062C10.5397 19.2062 9.63978 18.3348 9.63978 16.9865C9.63978 15.9766 10.1622 14.9552 10.623 14.0541C10.9418 13.4313 11.3499 12.8269 11.2428 12.4748C11.1846 12.2837 11.1185 12.2299 10.9631 12.2173C9.99992 12.1395 8.4234 14.5051 7.26066 18.7543L7.19605 18.9901H4.24948L5.02155 16.7323C6.23725 13.1778 7.75001 8.75334 9.05124 5.00924C9.09594 4.88053 9.12495 4.79399 9.12495 4.79399H12.0218C11.3475 6.64108 10.6957 8.48885 10.0407 10.4129C10.6927 9.88099 11.4464 9.58597 12.2134 9.58597C13.0835 9.58597 13.7719 10.0387 14.0927 10.7571C14.1038 10.7821 14.1386 10.7843 14.1529 10.761C14.449 10.2779 14.8536 9.89702 15.3674 9.61785C15.8811 9.33884 16.4713 9.19934 17.1383 9.19934C17.7643 9.19934 18.3069 9.3321 18.7662 9.59744C19.2256 9.86278 19.5537 10.2371 19.7512 10.7202L18.1079 11.4958C18.0058 11.2372 17.8629 11.0503 17.6792 10.9344C17.4956 10.8189 17.2812 10.7608 17.0362 10.7608C16.7776 10.7608 16.5445 10.8256 16.337 10.9548C16.1294 11.0842 15.9661 11.2645 15.8472 11.4958C15.7281 11.7272 15.6685 11.9926 15.6685 12.2918C15.6685 12.6116 15.762 12.8702 15.9492 13.0674H15.9491Z" fill="white"/>
</g>
<defs>
<clipPath id="clip0_978_13596">
<rect width="24" height="24" fill="white"/>
</clipPath>
</defs>
</svg>
