<svg width="24" height="24" viewBox="0 0 24 24" fill="none" xmlns="http://www.w3.org/2000/svg">
<g id="Icon">
<mask id="mask0_1086_3979" style="mask-type:alpha" maskUnits="userSpaceOnUse" x="0" y="0" width="40" height="40">
<rect id="Bounding box" width="40" height="40" fill="#D9D9D9"/>
</mask>
<g mask="url(#mask0_1086_3979)">
<path id="crisis_alert" d="M11.9996 21.5C10.6868 21.5 9.45252 21.2503 8.29685 20.751C7.14102 20.2517 6.13552 19.5744 5.28035 18.7193C4.42519 17.8641 3.74794 16.8586 3.2486 15.7028C2.74927 14.5471 2.4996 13.3128 2.4996 12C2.4996 10.2475 2.94252 8.62633 3.82835 7.1365C4.71435 5.64683 5.92719 4.48658 7.46685 3.65575C7.49002 3.89558 7.52019 4.13792 7.55735 4.38275C7.59452 4.62758 7.65535 4.909 7.73985 5.227C6.57202 5.96667 5.65669 6.93267 4.99385 8.125C4.33102 9.31733 3.9996 10.609 3.9996 12C3.9996 14.2333 4.7746 16.125 6.3246 17.675C7.8746 19.225 9.76627 20 11.9996 20C14.2329 20 16.1246 19.225 17.6746 17.675C19.2246 16.125 19.9996 14.2333 19.9996 12C19.9996 10.609 19.6666 9.31317 19.0006 8.1125C18.3346 6.91183 17.4093 5.94167 16.2246 5.202C16.3093 4.8905 16.3718 4.61392 16.4121 4.37225C16.4524 4.13058 16.4893 3.89175 16.5226 3.65575C18.0624 4.48658 19.2769 5.64433 20.1659 7.129C21.055 8.6135 21.4996 10.2372 21.4996 12C21.4996 13.3128 21.2499 14.5471 20.7506 15.7028C20.2513 16.8586 19.574 17.8641 18.7189 18.7193C17.8637 19.5744 16.8582 20.2517 15.7024 20.751C14.5467 21.2503 13.3124 21.5 11.9996 21.5ZM11.9996 17.5C10.4739 17.5 9.17585 16.9648 8.10535 15.8943C7.03485 14.8238 6.4996 13.5257 6.4996 12C6.4996 11.168 6.67369 10.3831 7.02185 9.64525C7.36985 8.90742 7.86502 8.28083 8.50735 7.7655C8.57785 7.9705 8.65185 8.1955 8.72935 8.4405C8.80702 8.68533 8.90669 8.98208 9.02835 9.33075C8.69385 9.70125 8.43877 10.1134 8.2631 10.5673C8.08744 11.0211 7.9996 11.4987 7.9996 12C7.9996 13.1 8.39127 14.0417 9.1746 14.825C9.95794 15.6083 10.8996 16 11.9996 16C13.0996 16 14.0413 15.6083 14.8246 14.825C15.6079 14.0417 15.9996 13.1 15.9996 12C15.9996 11.4923 15.9102 11.0148 15.7314 10.5673C15.5525 10.1199 15.2958 9.70775 14.9611 9.33075C15.0559 9.05258 15.1271 8.84042 15.1746 8.69425C15.2221 8.54808 15.3195 8.23525 15.4669 7.75575C16.1155 8.27125 16.6165 8.8995 16.9699 9.6405C17.323 10.3815 17.4996 11.168 17.4996 12C17.4996 13.5257 16.9644 14.8238 15.8939 15.8943C14.8234 16.9648 13.5253 17.5 11.9996 17.5ZM11.1919 8.25C10.5752 6.38967 10.1807 5.11725 10.0084 4.43275C9.83585 3.74808 9.7496 3.10383 9.7496 2.5C9.7496 1.8705 9.96727 1.33817 10.4026 0.903C10.8378 0.467667 11.3701 0.25 11.9996 0.25C12.6291 0.25 13.1614 0.467667 13.5966 0.903C14.0319 1.33817 14.2496 1.8705 14.2496 2.5C14.2496 3.10383 14.1634 3.74808 13.9909 4.43275C13.8185 5.11725 13.424 6.38967 12.8074 8.25H11.1919ZM11.9996 13.75C11.5138 13.75 11.1006 13.5798 10.7601 13.2395C10.4198 12.899 10.2496 12.4858 10.2496 12C10.2496 11.5142 10.4198 11.101 10.7601 10.7605C11.1006 10.4202 11.5138 10.25 11.9996 10.25C12.4854 10.25 12.8986 10.4202 13.2391 10.7605C13.5794 11.101 13.7496 11.5142 13.7496 12C13.7496 12.4858 13.5794 12.899 13.2391 13.2395C12.8986 13.5798 12.4854 13.75 11.9996 13.75Z" fill="#707070"/>
</g>
</g>
</svg>
