<svg width="24" height="24" viewBox="0 0 24 24" fill="none" xmlns="http://www.w3.org/2000/svg">
<g id="Icon">
<mask id="mask0_1086_3972" style="mask-type:alpha" maskUnits="userSpaceOnUse" x="0" y="0" width="40" height="40">
<rect id="Bounding box" width="40" height="40" fill="#D9D9D9"/>
</mask>
<g mask="url(#mask0_1086_3972)">
<path id="redeem" d="M3.9996 16.7883V18.692C3.9996 18.769 4.03169 18.8395 4.09585 18.9035C4.15985 18.9677 4.23035 18.9998 4.30735 18.9998H19.6919C19.7689 18.9998 19.8394 18.9677 19.9034 18.9035C19.9675 18.8395 19.9996 18.769 19.9996 18.692V16.7883H3.9996ZM4.30735 6.51904H7.0746C6.99127 6.36904 6.9291 6.21071 6.8881 6.04404C6.8471 5.87738 6.8266 5.70238 6.8266 5.51904C6.8266 4.82038 7.0686 4.22904 7.5526 3.74504C8.0366 3.26104 8.62794 3.01904 9.3266 3.01904C9.74577 3.01904 10.1335 3.12796 10.4899 3.34579C10.8462 3.56363 11.1571 3.83421 11.4226 4.15754L11.9804 4.90379L12.5381 4.15754C12.7933 3.82171 13.1021 3.54796 13.4646 3.33629C13.8273 3.12479 14.2179 3.01904 14.6364 3.01904C15.3337 3.01904 15.9243 3.26104 16.4081 3.74504C16.8921 4.22904 17.1341 4.82038 17.1341 5.51904C17.1341 5.70238 17.1152 5.87738 17.0774 6.04404C17.0395 6.21071 16.9758 6.36904 16.8861 6.51904H19.6919C20.197 6.51904 20.6246 6.69404 20.9746 7.04404C21.3246 7.39404 21.4996 7.82163 21.4996 8.32679V18.692C21.4996 19.1972 21.3246 19.6248 20.9746 19.9748C20.6246 20.3248 20.197 20.4998 19.6919 20.4998H4.30735C3.80219 20.4998 3.3746 20.3248 3.0246 19.9748C2.6746 19.6248 2.4996 19.1972 2.4996 18.692V8.32679C2.4996 7.82163 2.6746 7.39404 3.0246 7.04404C3.3746 6.69404 3.80219 6.51904 4.30735 6.51904ZM3.9996 14.2113H19.9996V8.32679C19.9996 8.24979 19.9675 8.17929 19.9034 8.11529C19.8394 8.05113 19.7689 8.01904 19.6919 8.01904H14.2264L16.2689 10.8113L15.0726 11.6728L11.9804 7.47679L8.8881 11.6728L7.69185 10.8113L9.7036 8.01904H4.30735C4.23035 8.01904 4.15985 8.05113 4.09585 8.11529C4.03169 8.17929 3.9996 8.24979 3.9996 8.32679V14.2113ZM9.3266 6.51904C9.60994 6.51904 9.84744 6.42321 10.0391 6.23154C10.2308 6.03988 10.3266 5.80238 10.3266 5.51904C10.3266 5.23571 10.2308 4.99821 10.0391 4.80654C9.84744 4.61488 9.60994 4.51904 9.3266 4.51904C9.04327 4.51904 8.80577 4.61488 8.6141 4.80654C8.42244 4.99821 8.3266 5.23571 8.3266 5.51904C8.3266 5.80238 8.42244 6.03988 8.6141 6.23154C8.80577 6.42321 9.04327 6.51904 9.3266 6.51904ZM14.6341 6.51904C14.9174 6.51904 15.1549 6.42321 15.3466 6.23154C15.5383 6.03988 15.6341 5.80238 15.6341 5.51904C15.6341 5.23571 15.5383 4.99821 15.3466 4.80654C15.1549 4.61488 14.9174 4.51904 14.6341 4.51904C14.3508 4.51904 14.1133 4.61488 13.9216 4.80654C13.7299 4.99821 13.6341 5.23571 13.6341 5.51904C13.6341 5.80238 13.7299 6.03988 13.9216 6.23154C14.1133 6.42321 14.3508 6.51904 14.6341 6.51904Z" fill="#707070"/>
</g>
</g>
</svg>
