<svg width="24" height="24" viewBox="0 0 24 24" fill="none" xmlns="http://www.w3.org/2000/svg">
<g id="Icon">
<mask id="mask0_1086_5720" style="mask-type:alpha" maskUnits="userSpaceOnUse" x="0" y="0" width="24" height="24">
<rect id="Bounding box" width="24" height="24" fill="#D9D9D9"/>
</mask>
<g mask="url(#mask0_1086_5720)">
<path id="event_note" d="M4.66675 22C4.21675 22 3.82642 21.8348 3.49575 21.5043C3.16525 21.1736 3 20.7833 3 20.3333V5.33325C3 4.88325 3.16525 4.493 3.49575 4.1625C3.82642 3.832 4.21675 3.66675 4.66675 3.66675H6.08325V2H7.83325V3.66675H16.1668V2H17.9168V3.66675H19.3333C19.7833 3.66675 20.1736 3.832 20.5043 4.1625C20.8348 4.493 21 4.88325 21 5.33325V20.3333C21 20.7833 20.8348 21.1736 20.5043 21.5043C20.1736 21.8348 19.7833 22 19.3333 22H4.66675ZM4.66675 20.3333H19.3333V9.83325H4.66675V20.3333ZM4.66675 8.16675H19.3333V5.33325H4.66675V8.16675ZM7 13.6668V12H17V13.6668H7ZM7 18V16.3333H13.9833V18H7Z" fill="#707070"/>
</g>
</g>
</svg>
