<svg width="24" height="24" viewBox="0 0 24 24" fill="none" xmlns="http://www.w3.org/2000/svg">
<g id="Icon">
<mask id="mask0_1086_5713" style="mask-type:alpha" maskUnits="userSpaceOnUse" x="0" y="0" width="24" height="24">
<rect id="Bounding box" width="24" height="24" fill="#D9D9D9"/>
</mask>
<g mask="url(#mask0_1086_5713)">
<path id="team_dashboard" d="M4.66675 21C4.20842 21 3.816 20.8368 3.4895 20.5105C3.16317 20.184 3 19.7916 3 19.3333V4.66675C3 4.20842 3.16317 3.816 3.4895 3.4895C3.816 3.16317 4.20842 3 4.66675 3H19.3333C19.7916 3 20.184 3.16317 20.5105 3.4895C20.8368 3.816 21 4.20842 21 4.66675V19.3333C21 19.7916 20.8368 20.184 20.5105 20.5105C20.184 20.8368 19.7916 21 19.3333 21H4.66675ZM10.1668 19.3333V12.8333H4.66675V19.3333H10.1668ZM11.8333 19.3333H19.3333V12.8333H11.8333V19.3333ZM4.66675 11.1667H19.3333V4.66675H4.66675V11.1667Z" fill="#707070"/>
</g>
</g>
</svg>
